<svg width="38" height="54" viewBox="0 0 38 54" fill="none" xmlns="http://www.w3.org/2000/svg" xmlns:xlink="http://www.w3.org/1999/xlink">
<path d="M19.056,-0.455C18.429,-0.835 17.642,-0.835 17.014,-0.455C16.902,-0.388 14.236,1.237 11.375,4.099C8.119,7.356 4.238,12.625 4.238,19.224C4.238,21.669 4.492,24.299 4.889,26.921C3.449,28.76 2.184,31.008 1.116,33.633C-2.499,42.519 0.632,51.096 0.767,51.457C0.977,52.018 1.43,52.453 1.998,52.64C2.566,52.828 3.189,52.748 3.691,52.422L11.944,47.072L24.125,47.072L32.379,52.422C32.881,52.748 33.504,52.828 34.072,52.64C34.369,52.542 34.634,52.377 34.85,52.161C35.047,51.964 35.202,51.725 35.303,51.457C35.438,51.097 38.569,42.519 34.954,33.633C33.759,30.696 32.434,28.521 31.181,26.917C31.579,24.297 31.832,21.668 31.832,19.224C31.833,7.403 19.578,-0.14 19.056,-0.455ZM9.121,44.194L3.819,47.631C3.252,44.829 2.794,39.99 4.775,35.123C5.159,34.18 5.554,33.338 5.95,32.584C7.045,37.571 8.391,41.955 9.121,44.194ZM31.296,35.123C33.264,39.959 32.808,44.812 32.244,47.626L26.949,44.194C27.679,41.954 29.026,37.568 30.121,32.578C30.517,33.336 30.912,34.179 31.296,35.123ZM25.54,20.365C25.54,22.371 24.759,24.256 23.342,25.674C21.924,27.092 20.04,27.874 18.035,27.873C13.897,27.873 10.53,24.505 10.53,20.365C10.53,18.36 11.311,16.474 12.728,15.056C14.145,13.638 16.03,12.857 18.035,12.857C22.173,12.857 25.54,16.225 25.54,20.365ZM18.035,16.809C19.995,16.809 21.59,18.404 21.59,20.365C21.59,21.315 21.22,22.208 20.549,22.88C19.877,23.552 18.985,23.922 18.035,23.922C16.075,23.922 14.48,22.326 14.48,20.365C14.48,19.415 14.85,18.522 15.521,17.851C16.193,17.179 17.085,16.809 18.035,16.809Z" fill="url(#pf_0_1_39)"/>
<defs>
<linearGradient id="pf_0_1_39" x1="18.035" y1="-0.74" x2="18.035" y2="52.74" gradientUnits="userSpaceOnUse">
<stop stop-color="#2FB8FF"/>
<stop offset="1" stop-color="#9EECD9"/>
</linearGradient>
</defs>
</svg>
