<svg width="24" height="30" viewBox="0 0 24 30" fill="none" xmlns="http://www.w3.org/2000/svg" xmlns:xlink="http://www.w3.org/1999/xlink">
<path d="M2.032,12.045L6.37,6.176C9.174,2.382 10.576,0.485 11.884,0.886C13.192,1.287 13.192,3.614 13.192,8.267L13.192,8.706C13.192,10.384 13.192,11.223 13.728,11.749L13.757,11.777C14.305,12.292 15.178,12.292 16.925,12.292C20.068,12.292 21.64,12.292 22.171,13.245C22.18,13.261 22.188,13.277 22.197,13.293C22.698,14.261 21.788,15.492 19.968,17.955L15.63,23.824C12.826,27.618 11.424,29.515 10.116,29.114C8.808,28.713 8.808,26.386 8.808,21.733L8.808,21.295C8.808,19.616 8.808,18.777 8.272,18.251L8.243,18.224C7.695,17.708 6.822,17.708 5.075,17.708C1.932,17.708 0.36,17.708 -0.171,16.755C-0.18,16.739 -0.188,16.723 -0.197,16.707C-0.698,15.739 0.212,14.508 2.032,12.045Z" transform="rotate(19.185 11 15)" fill="url(#pf_0_i_1_42;18_60)"/>
<defs>
<linearGradient id="pf_0_i_1_42;18_60" x1="20.915" y1="-43.668" x2="8.639" y2="28.969" gradientUnits="userSpaceOnUse">
<stop stop-color="#2FB8FF"/>
<stop offset="1" stop-color="#9EECD9"/>
</linearGradient>
</defs>
</svg>
