<svg width="28" height="28" viewBox="0 0 28 28" fill="none" xmlns="http://www.w3.org/2000/svg">
<g clip-path="url(#clip0_122_8136)">
<path d="M27.5 14C27.5 6.54416 21.4558 0.5 14 0.5C6.54416 0.5 0.5 6.54416 0.5 14C0.5 21.4558 6.54416 27.5 14 27.5C21.4558 27.5 27.5 21.4558 27.5 14Z" fill="url(#paint0_linear_122_8136)"/>
<path fill-rule="evenodd" clip-rule="evenodd" d="M8.07129 13.163C8.07129 11.6847 8.07129 10.9443 8.35951 10.3793C8.61278 9.88235 9.01682 9.47831 9.51376 9.22505C10.0787 8.9375 10.8185 8.9375 12.2975 8.9375H15.7312C17.2108 8.9375 17.9499 8.9375 18.5149 9.22505C19.0118 9.47831 19.4159 9.88235 19.6691 10.3793C19.7515 10.5413 19.8109 10.7161 19.8521 10.9186H17.7562C17.1419 10.9186 16.8355 10.9186 16.5817 10.974C16.1281 11.0726 15.7125 11.2994 15.3842 11.6276C15.0559 11.9557 14.8289 12.3713 14.7302 12.8248C14.6748 13.0793 14.6748 13.3864 14.6748 14C14.6748 14.6142 14.6748 14.9214 14.7302 15.1758C14.8289 15.6293 15.0558 16.0448 15.3839 16.3729C15.7121 16.7011 16.1276 16.928 16.581 17.0267C16.8355 17.082 17.1426 17.082 17.7562 17.082H19.8521C19.8102 17.2845 19.7515 17.46 19.6698 17.6207C19.4166 18.1177 19.0125 18.5217 18.5156 18.7749C17.9499 19.0632 17.2108 19.0632 15.7312 19.0632H12.2975C10.8185 19.0632 10.0787 19.0632 9.51376 18.7749C9.01679 18.5217 8.61274 18.1177 8.35951 17.6207C8.07129 17.0557 8.07129 16.3166 8.07129 14.837V13.1643V13.163ZM15.555 14C15.555 13.1785 15.555 12.7681 15.7076 12.4509C15.8594 12.1363 16.1126 11.8825 16.4271 11.7313C16.7444 11.5788 17.1548 11.5788 17.9762 11.5788H18.8571C19.6779 11.5788 20.089 11.5788 20.4056 11.7313C20.7201 11.8825 20.9739 12.1363 21.1258 12.4509C21.2783 12.7681 21.2783 13.1785 21.2783 14C21.2783 14.8215 21.2783 15.2319 21.1251 15.5491C20.9739 15.863 20.7201 16.1168 20.4056 16.2687C20.0883 16.4212 19.6786 16.4212 18.8571 16.4212H17.9756C17.1541 16.4212 16.7437 16.4212 16.4271 16.2687C16.1125 16.1173 15.8585 15.8636 15.7069 15.5491C15.5543 15.2319 15.5543 14.8215 15.5543 14H15.555ZM18.417 14C18.417 14.2336 18.3242 14.4577 18.159 14.6229C17.9938 14.7881 17.7698 14.8809 17.5361 14.8809C17.3025 14.8809 17.0785 14.7881 16.9133 14.6229C16.7481 14.4577 16.6553 14.2336 16.6553 14C16.6553 13.7664 16.7481 13.5423 16.9133 13.3771C17.0785 13.2119 17.3025 13.1191 17.5361 13.1191C17.7698 13.1191 17.9938 13.2119 18.159 13.3771C18.3242 13.5423 18.417 13.7664 18.417 14Z" fill="white"/>
</g>
<defs>
<linearGradient id="paint0_linear_122_8136" x1="14" y1="0.5" x2="14" y2="27.5" gradientUnits="userSpaceOnUse">
<stop stop-color="#60BFEF"/>
<stop offset="1" stop-color="#0094FE"/>
</linearGradient>
<clipPath id="clip0_122_8136">
<rect width="27" height="27" fill="white" transform="translate(0.5 0.5)"/>
</clipPath>
</defs>
</svg>
