<svg width="29" height="28" viewBox="0 0 29 28" fill="none" xmlns="http://www.w3.org/2000/svg">
<path d="M19.6575 2.33334H9.0926C7.68932 2.33334 6.98767 2.33334 6.42382 2.68182C5.85996 3.03031 5.54618 3.65788 4.91861 4.91301L3.28106 9.05251C2.90272 10.0089 2.5717 11.1361 3.20856 11.9437C3.63581 12.4855 4.29811 12.8333 5.04168 12.8333C6.33034 12.8333 7.37501 11.7887 7.37501 10.5C7.37501 11.7887 8.41968 12.8333 9.70834 12.8333C10.997 12.8333 12.0417 11.7887 12.0417 10.5C12.0417 11.7887 13.0863 12.8333 14.375 12.8333C15.6637 12.8333 16.7083 11.7887 16.7083 10.5C16.7083 11.7887 17.753 12.8333 19.0417 12.8333C20.3303 12.8333 21.375 11.7887 21.375 10.5C21.375 11.7887 22.4197 12.8333 23.7083 12.8333C24.4519 12.8333 25.1143 12.4855 25.5415 11.9437C26.1784 11.1361 25.8474 10.0089 25.4691 9.05251L23.8315 4.91301C23.2039 3.65788 22.8902 3.03031 22.3263 2.68182C21.7624 2.33334 21.0608 2.33334 19.6575 2.33334Z" fill="white" fill-opacity="0.3"/>
<path fill-rule="evenodd" clip-rule="evenodd" d="M23.7083 24.7917H26.0417C26.5249 24.7917 26.9167 25.1834 26.9167 25.6667C26.9167 26.1499 26.5249 26.5417 26.0417 26.5417H2.70834C2.22509 26.5417 1.83334 26.1499 1.83334 25.6667C1.83334 25.1834 2.22509 24.7917 2.70834 24.7917H5.04168L5.04168 14.5834C5.90924 14.5834 6.71361 14.3128 7.37501 13.8515C8.03642 14.3128 8.84079 14.5834 9.70835 14.5834C10.5759 14.5834 11.3803 14.3128 12.0417 13.8515C12.7031 14.3128 13.5075 14.5834 14.375 14.5834C15.2426 14.5834 16.0469 14.3128 16.7083 13.8515C17.3698 14.3128 18.1741 14.5834 19.0417 14.5834C19.9092 14.5834 20.7136 14.3128 21.375 13.8515C22.0364 14.3128 22.8408 14.5834 23.7083 14.5834L23.7083 24.7917ZM11.4583 24.7917H17.2917V21.5833C17.2917 20.493 17.2917 19.9478 17.0572 19.5417C16.9036 19.2756 16.6827 19.0547 16.4167 18.9011C16.0106 18.6667 15.4654 18.6667 14.375 18.6667C13.2846 18.6667 12.7394 18.6667 12.3333 18.9011C12.0673 19.0547 11.8464 19.2756 11.6928 19.5417C11.4583 19.9478 11.4583 20.493 11.4583 21.5833V24.7917Z" fill="white" fill-opacity="0.3"/>
</svg>
