<svg width="29" height="28" viewBox="0 0 29 28" fill="none" xmlns="http://www.w3.org/2000/svg">
<path d="M16.2917 6.33333C16.2917 9.27885 13.9039 11.6667 10.9583 11.6667C8.01281 11.6667 5.625 9.27885 5.625 6.33333C5.625 3.38781 8.01281 1 10.9583 1C13.9039 1 16.2917 3.38781 16.2917 6.33333Z" fill="white" fill-opacity="0.3"/>
<path d="M20.2917 21.0013C20.2917 23.9468 16.113 26.3346 10.9583 26.3346C5.80368 26.3346 1.625 23.9468 1.625 21.0013C1.625 18.0558 5.80368 15.668 10.9583 15.668C16.113 15.668 20.2917 18.0558 20.2917 21.0013Z" fill="white" fill-opacity="0.3"/>
<path d="M26.9565 21.0006C26.9565 23.2097 24.2425 25.0006 20.9288 25.0006C21.905 23.9335 22.5763 22.594 22.5763 21.0025C22.5763 19.4091 21.9035 18.0684 20.9254 17.0007C24.2391 17.0007 26.9565 18.7915 26.9565 21.0006Z" fill="white" fill-opacity="0.3"/>
<path d="M22.9565 6.33431C22.9565 8.54345 21.1657 10.3343 18.9565 10.3343C18.4748 10.3343 18.013 10.2492 17.5853 10.0931C18.2161 8.98363 18.5763 7.7003 18.5763 6.33282C18.5763 4.96636 18.2166 3.68392 17.5867 2.57502C18.014 2.41927 18.4753 2.33431 18.9565 2.33431C21.1657 2.33431 22.9565 4.12517 22.9565 6.33431Z" fill="white" fill-opacity="0.3"/>
</svg>
