<svg width="48" height="48" viewBox="0 0 48 48" fill="none" xmlns="http://www.w3.org/2000/svg" xmlns:xlink="http://www.w3.org/1999/xlink">
<path d="M1.628,14.253C0.417,16.466 0.417,19.136 0.417,24.476L0.417,28.025C0.417,37.127 0.417,41.678 3.15,44.506C5.884,47.333 10.284,47.333 19.083,47.333L28.417,47.333C37.216,47.333 41.616,47.333 44.35,44.506C47.083,41.678 47.083,37.127 47.083,28.025L47.083,24.476C47.083,19.136 47.083,16.466 45.872,14.253C44.66,12.04 42.447,10.666 38.021,7.919L33.354,5.023C28.675,2.119 26.335,0.667 23.75,0.667C21.165,0.667 18.825,2.119 14.146,5.023L9.479,7.919C5.053,10.666 2.84,12.04 1.628,14.253ZM16.75,36.25C15.784,36.25 15,37.033 15,38C15,38.966 15.784,39.75 16.75,39.75L30.75,39.75C31.716,39.75 32.5,38.966 32.5,38C32.5,37.033 31.716,36.25 30.75,36.25L16.75,36.25Z" clip-rule="evenodd" fill-rule="evenodd" fill="#FFFFFF" fill-opacity="0.3"/>
</svg>
