<svg width="64" height="64" viewBox="0 0 64 64" fill="none" xmlns="http://www.w3.org/2000/svg">
<g filter="url(#filter0_f_34_1279)">
<path fill-rule="evenodd" clip-rule="evenodd" d="M20.8141 27.1265C20.2083 28.2331 20.2083 29.5681 20.2083 32.2379V34.0124C20.2083 38.5635 20.2083 40.839 21.5752 42.2528C22.942 43.6666 25.1419 43.6666 29.5417 43.6666H34.2083C38.6081 43.6666 40.808 43.6666 42.1748 42.2528C43.5417 40.839 43.5417 38.5635 43.5417 34.0124V32.2379C43.5417 29.5681 43.5417 28.2331 42.9359 27.1265C42.3302 26.0199 41.2236 25.3331 39.0103 23.9595L36.677 22.5113C34.3374 21.0593 33.1676 20.3333 31.875 20.3333C30.5824 20.3333 29.4126 21.0593 27.073 22.5113L24.7397 23.9595C22.5264 25.3331 21.4198 26.0199 20.8141 27.1265ZM28.375 38.125C27.8918 38.125 27.5 38.5167 27.5 39C27.5 39.4832 27.8918 39.875 28.375 39.875H35.375C35.8583 39.875 36.25 39.4832 36.25 39C36.25 38.5167 35.8583 38.125 35.375 38.125H28.375Z" fill="url(#paint0_linear_34_1279)" fill-opacity="0.6"/>
</g>
<g filter="url(#filter1_f_34_1279)">
<path fill-rule="evenodd" clip-rule="evenodd" d="M20.8141 27.1265C20.2083 28.2331 20.2083 29.5681 20.2083 32.2379V34.0124C20.2083 38.5635 20.2083 40.839 21.5752 42.2528C22.942 43.6666 25.1419 43.6666 29.5417 43.6666H34.2083C38.6081 43.6666 40.808 43.6666 42.1748 42.2528C43.5417 40.839 43.5417 38.5635 43.5417 34.0124V32.2379C43.5417 29.5681 43.5417 28.2331 42.9359 27.1265C42.3302 26.0199 41.2236 25.3331 39.0103 23.9595L36.677 22.5113C34.3374 21.0593 33.1676 20.3333 31.875 20.3333C30.5824 20.3333 29.4126 21.0593 27.073 22.5113L24.7397 23.9595C22.5264 25.3331 21.4198 26.0199 20.8141 27.1265ZM28.375 38.125C27.8918 38.125 27.5 38.5167 27.5 39C27.5 39.4832 27.8918 39.875 28.375 39.875H35.375C35.8583 39.875 36.25 39.4832 36.25 39C36.25 38.5167 35.8583 38.125 35.375 38.125H28.375Z" fill="url(#paint1_linear_34_1279)"/>
</g>
<path fill-rule="evenodd" clip-rule="evenodd" d="M20.8141 27.1265C20.2083 28.2332 20.2083 29.5681 20.2083 32.2379V34.0125C20.2083 38.5635 20.2083 40.839 21.5752 42.2528C22.942 43.6667 25.1419 43.6667 29.5417 43.6667H34.2083C38.6081 43.6667 40.808 43.6667 42.1748 42.2528C43.5417 40.839 43.5417 38.5635 43.5417 34.0125V32.2379C43.5417 29.5681 43.5417 28.2332 42.9359 27.1265C42.3302 26.0199 41.2236 25.3331 39.0103 23.9595L36.677 22.5114C34.3374 21.0593 33.1676 20.3333 31.875 20.3333C30.5824 20.3333 29.4126 21.0593 27.073 22.5114L24.7397 23.9595C22.5264 25.3331 21.4198 26.0199 20.8141 27.1265ZM28.375 38.125C27.8918 38.125 27.5 38.5168 27.5 39C27.5 39.4833 27.8918 39.875 28.375 39.875H35.375C35.8583 39.875 36.25 39.4833 36.25 39C36.25 38.5168 35.8583 38.125 35.375 38.125H28.375Z" fill="url(#paint2_linear_34_1279)"/>
<defs>
<filter id="filter0_f_34_1279" x="0.208344" y="0.333313" width="63.3333" height="63.3333" filterUnits="userSpaceOnUse" color-interpolation-filters="sRGB">
<feFlood flood-opacity="0" result="BackgroundImageFix"/>
<feBlend mode="normal" in="SourceGraphic" in2="BackgroundImageFix" result="shape"/>
<feGaussianBlur stdDeviation="10" result="effect1_foregroundBlur_34_1279"/>
</filter>
<filter id="filter1_f_34_1279" x="16.2083" y="16.3333" width="31.3333" height="31.3333" filterUnits="userSpaceOnUse" color-interpolation-filters="sRGB">
<feFlood flood-opacity="0" result="BackgroundImageFix"/>
<feBlend mode="normal" in="SourceGraphic" in2="BackgroundImageFix" result="shape"/>
<feGaussianBlur stdDeviation="2" result="effect1_foregroundBlur_34_1279"/>
</filter>
<linearGradient id="paint0_linear_34_1279" x1="31.875" y1="20.3333" x2="31.875" y2="43.6666" gradientUnits="userSpaceOnUse">
<stop stop-color="#2FB8FF"/>
<stop offset="1" stop-color="#9EECD9"/>
</linearGradient>
<linearGradient id="paint1_linear_34_1279" x1="31.875" y1="20.3333" x2="31.875" y2="43.6666" gradientUnits="userSpaceOnUse">
<stop stop-color="#2FB8FF"/>
<stop offset="1" stop-color="#9EECD9"/>
</linearGradient>
<linearGradient id="paint2_linear_34_1279" x1="31.875" y1="20.3333" x2="31.875" y2="43.6667" gradientUnits="userSpaceOnUse">
<stop stop-color="#2FB8FF"/>
<stop offset="1" stop-color="#9EECD9"/>
</linearGradient>
</defs>
</svg>
