<svg width="29" height="28" viewBox="0 0 29 28" fill="none" xmlns="http://www.w3.org/2000/svg">
<path fill-rule="evenodd" clip-rule="evenodd" d="M23.9372 11.504C23.8735 11.5 23.8041 11.5 23.7322 11.5L23.7142 11.5H20.8935C18.5684 11.5 16.5789 13.3446 16.5789 15.75C16.5789 18.1555 18.5684 20 20.8935 20H23.7142L23.7322 20C23.8041 20.0001 23.8735 20.0001 23.9372 19.996C24.8817 19.9359 25.7169 19.191 25.7871 18.1507C25.7917 18.0824 25.7917 18.0089 25.7916 17.9407L25.7916 17.9222V13.5778L25.7916 13.5593C25.7917 13.4911 25.7917 13.4176 25.7871 13.3494C25.7169 12.309 24.8817 11.5641 23.9372 11.504ZM20.6433 16.8833C21.2419 16.8833 21.7272 16.3759 21.7272 15.75C21.7272 15.1241 21.2419 14.6167 20.6433 14.6167C20.0447 14.6167 19.5595 15.1241 19.5595 15.75C19.5595 16.3759 20.0447 16.8833 20.6433 16.8833Z" fill="white" fill-opacity="0.3"/>
<path fill-rule="evenodd" clip-rule="evenodd" d="M23.7315 21.7C23.8991 21.6956 24.026 21.8522 23.9805 22.0148C23.7548 22.8223 23.3965 23.5105 22.8216 24.0899C21.98 24.9381 20.913 25.3145 19.5946 25.4931C18.3135 25.6667 16.6767 25.6667 14.6101 25.6667H12.2342C10.1677 25.6667 8.53082 25.6667 7.24977 25.4931C5.93139 25.3145 4.8643 24.9381 4.02276 24.0899C3.18123 23.2418 2.80777 22.1663 2.63051 20.8376C2.45828 19.5465 2.4583 17.8967 2.45831 15.8139V15.6861C2.4583 13.6033 2.45828 11.9536 2.63051 10.6625C2.80777 9.33371 3.18123 8.25823 4.02276 7.41009C4.8643 6.56194 5.93139 6.18554 7.24977 6.0069C8.53082 5.83331 10.1677 5.83333 12.2342 5.83334L14.6101 5.83334C16.6767 5.83333 18.3135 5.83331 19.5946 6.0069C20.913 6.18554 21.98 6.56194 22.8216 7.41009C23.3965 7.98954 23.7548 8.67772 23.9805 9.48515C24.026 9.64787 23.8991 9.8044 23.7314 9.80002L20.8934 9.80002C17.7036 9.80002 14.892 12.3397 14.892 15.75C14.892 19.1603 17.7036 21.7 20.8934 21.7L23.7315 21.7ZM6.67518 10.3667C6.2094 10.3667 5.83181 10.7472 5.83181 11.2167C5.83181 11.6861 6.2094 12.0667 6.67518 12.0667H11.1732C11.639 12.0667 12.0165 11.6861 12.0165 11.2167C12.0165 10.7472 11.639 10.3667 11.1732 10.3667H6.67518Z" fill="white" fill-opacity="0.3"/>
<path d="M9.19777 4.69513L11.483 3.01148C12.7103 2.1073 14.373 2.1073 15.6002 3.01148L17.8975 4.70398C16.937 4.66662 15.8643 4.66665 14.6883 4.66668H12.156C11.0814 4.66665 10.0931 4.66663 9.19777 4.69513Z" fill="white" fill-opacity="0.3"/>
</svg>
